<!-- これはpngからsvgに自動変換されたものです。公式によって提供されたものではありません。 -->
<!-- 商用でのご利用はおやめください。 -->
<svg version="1.0" xmlns="http://www.w3.org/2000/svg" width="256px" height="256px" viewBox="0 0 2560 2560" preserveAspectRatio="xMidYMid meet">
	<g id="layer101" fill="#131011" stroke="none">
		<path d="M1040 2429 c-425 -248 -863 -499 -872 -499 -4 0 -8 -267 -8 -594 l0 -593 -66 -167 c-36 -92 -65 -169 -63 -170 2 -2 135 -62 296 -135 283 -127 294 -131 360 -131 37 0 91 3 120 6 47 6 53 9 58 35 4 16 10 31 15 34 4 3 94 -45 198 -105 105 -61 197 -110 204 -110 7 0 97 49 199 108 103 59 351 201 552 317 l366 210 1 158 c0 119 4 165 15 187 34 66 67 206 72 311 7 125 -12 226 -58 316 -27 55 -29 64 -29 189 0 130 0 131 -25 142 -14 7 -260 148 -547 314 -287 166 -531 303 -542 305 -13 2 -107 -47 -246 -128z m1418 -1027 c2 -7 -2 -10 -12 -6 -9 3 -16 11 -16 16 0 13 23 5 28 -10z m1 -88 c3 -16 1 -17 -13 -5 -19 16 -21 34 -3 29 6 -3 14 -13 16 -24z m-9 -71 c0 -20 -24 -11 -28 10 -2 12 1 15 12 11 9 -3 16 -13 16 -21z m-10 -90 c0 -11 -4 -11 -20 -3 -11 6 -17 16 -13 25 4 12 9 13 19 4 8 -6 14 -18 14 -26z m-28 -85 c-9 -9 -12 -7 -12 12 0 19 3 21 12 12 9 -9 9 -15 0 -24z" />
	</g>
	<g id="layer102" fill="#2f1f13" stroke="none">
		<path d="M1253 2549 c-18 -7 -23 -17 -24 -46 l-2 -38 -6 32 -6 32 -160 -93 c-88 -51 -182 -106 -210 -123 l-50 -29 -5 -105 -6 -104 -4 97 -5 98 -57 -35 c-32 -19 -58 -32 -58 -30 0 3 -17 -5 -37 -19 -21 -13 -112 -65 -203 -117 -91 -51 -179 -103 -196 -116 -17 -13 -38 -23 -47 -23 -16 0 -17 -48 -17 -594 l0 -593 -66 -167 c-36 -92 -65 -169 -63 -170 5 -4 318 -146 339 -153 9 -3 7 0 -4 9 -17 13 -10 15 75 21 67 4 96 3 101 -6 4 -7 8 -7 8 -2 0 11 -20 44 -20 33 0 -4 -16 0 -36 8 -20 8 -33 10 -29 5 8 -14 -194 -15 -215 -1 -14 9 58 15 163 14 21 -1 34 2 28 5 -6 4 3 41 24 96 33 88 33 90 14 103 -11 8 -22 12 -24 11 -2 -2 -17 -40 -35 -84 -30 -75 -30 -80 -14 -92 16 -11 16 -13 2 -13 -9 0 -19 4 -22 9 -3 5 -29 7 -58 5 -29 -2 -78 -6 -108 -8 -30 -2 -64 -1 -75 3 -24 10 139 23 175 15 15 -3 20 -2 13 3 -9 6 14 75 82 257 52 136 96 250 98 252 2 3 44 -15 93 -39 49 -24 121 -57 159 -72 98 -41 151 -72 147 -87 -3 -12 -90 -245 -154 -410 -27 -70 -31 -77 -49 -68 -10 6 -19 7 -19 3 0 -4 -5 -1 -10 8 -7 12 -5 28 5 52 13 31 13 36 -4 51 -10 9 -20 16 -24 16 -11 0 -27 -67 -20 -86 6 -16 5 -17 -9 -6 -11 9 -18 10 -23 2 -4 -6 -50 -10 -113 -10 l-107 -1 35 -18 c19 -11 37 -16 40 -11 4 6 106 19 165 20 11 1 22 6 26 11 4 7 8 5 12 -4 5 -12 -11 -16 -83 -22 -86 -7 -88 -8 -72 -25 48 -51 157 -71 299 -54 47 6 53 9 58 35 4 16 10 31 15 34 4 3 94 -45 200 -105 106 -61 197 -110 202 -110 10 0 140 74 838 477 l275 158 3 111 c2 84 -1 118 -13 140 -8 16 -15 24 -15 18 0 -18 -118 -152 -166 -188 -41 -31 -48 -34 -61 -21 -14 15 -27 19 -48 16 -5 -1 3 10 18 24 26 23 29 45 7 45 -5 0 -34 11 -65 25 -30 14 -81 36 -112 51 -32 14 -76 33 -98 43 -39 18 -41 18 -65 0 -54 -42 -131 -89 -155 -95 -33 -8 -78 3 -69 18 5 7 2 9 -8 5 -9 -3 -26 1 -37 10 -12 8 -31 13 -43 10 -11 -3 -17 -3 -14 0 9 9 -27 32 -51 33 -30 0 -66 58 -98 156 -28 87 -30 98 -12 91 6 -3 20 -8 30 -12 12 -5 17 -2 17 8 0 17 -34 32 -50 22 -6 -4 -10 11 -10 40 l0 45 26 -17 c25 -16 26 -16 22 3 -2 11 -13 20 -26 22 -12 2 -22 10 -22 18 0 19 4 18 58 -13 26 -14 60 -33 75 -41 16 -8 26 -16 23 -19 -3 -3 -21 4 -41 16 -20 11 -41 21 -46 21 -9 0 -3 -106 7 -122 7 -12 -14 -10 -38 3 -17 9 -19 8 -16 -8 2 -10 8 -18 13 -18 6 0 16 -4 23 -8 7 -5 12 -3 13 5 0 7 10 -16 22 -52 12 -36 28 -75 35 -87 17 -30 15 -35 -7 -23 -28 14 -36 12 -21 -5 7 -8 22 -15 34 -15 12 0 26 -4 31 -9 6 -4 31 -16 56 -25 44 -17 47 -17 86 3 22 12 50 33 63 46 23 25 23 25 4 41 -13 11 -15 17 -6 20 17 8 15 34 -3 34 -8 0 -15 4 -15 9 0 5 7 8 16 7 9 0 19 5 21 12 4 10 -15 17 -39 13 -5 0 -8 5 -8 13 0 12 6 12 29 3 23 -8 30 -19 37 -55 11 -55 27 -63 45 -23 7 16 16 28 20 25 6 -4 68 89 142 212 105 177 158 504 104 650 -14 39 -14 40 6 39 11 -1 27 -12 35 -26 l14 -24 -20 23 c-14 16 -23 19 -28 11 -7 -12 21 -39 41 -39 15 0 32 -37 40 -87 4 -21 9 -47 12 -58 5 -19 4 -19 -19 3 -28 26 -48 29 -48 6 0 -8 16 -22 36 -30 31 -13 35 -19 33 -47 -4 -40 2 -50 43 -71 18 -9 40 -21 48 -26 97 -60 183 -110 201 -115 21 -7 21 -5 15 52 -10 91 -40 175 -80 221 -11 12 -14 22 -8 22 17 0 16 221 -1 242 -11 14 -362 219 -399 234 -17 6 -18 -21 -20 -472 -1 -264 -4 -452 -7 -419 -5 49 -10 62 -29 71 -12 6 -34 22 -47 34 l-25 23 -1 -29 c-1 -22 -3 -18 -10 16 -4 25 -8 230 -8 455 l-1 411 -203 117 c-112 64 -207 117 -210 117 -4 0 -8 -192 -9 -427 -1 -236 -3 -410 -5 -389 -3 22 -12 45 -21 52 -15 11 -18 8 -23 -24 -3 -20 -7 76 -9 213 -1 138 -5 332 -9 431 l-6 181 -22 -8z m-1070 -816 c-6 -254 -10 -261 -12 -15 0 111 3 202 7 202 5 0 7 -84 5 -187z m1507 -145 c0 -5 -7 -2 -16 6 -8 9 -20 16 -25 16 -5 0 -9 5 -9 10 0 6 11 3 25 -6 14 -9 25 -21 25 -26z m-582 -440 c-13 -18 -29 -38 -35 -46 -7 -7 -17 -20 -22 -29 -8 -15 -13 -14 -41 10 -17 15 -27 27 -21 27 5 0 36 16 68 35 32 19 62 35 66 35 4 0 -3 -15 -15 -32z m-838 -468 c-11 -28 -20 -52 -20 -54 0 -2 -11 -6 -23 -8 l-24 -5 19 51 c25 65 26 66 48 66 19 0 19 -1 0 -50z m1805 21 c-8 -14 33 -34 53 -26 27 10 0 -10 -31 -23 -16 -7 -26 -8 -23 -3 3 5 0 14 -8 20 -11 9 -12 6 -8 -14 2 -14 0 -25 -6 -25 -6 0 -19 -3 -29 -7 -14 -5 -12 -1 6 15 l24 22 -49 -5 c-27 -3 -50 -10 -52 -15 -2 -6 -14 -10 -28 -10 -16 0 -22 -4 -18 -15 5 -11 -1 -14 -25 -12 -17 1 -31 6 -31 11 0 4 -11 5 -25 2 -14 -4 -25 -2 -25 4 0 5 9 10 21 10 11 0 27 6 34 14 8 7 36 14 63 14 27 1 62 6 77 12 15 6 30 9 32 6 3 -2 13 4 24 15 20 20 34 26 24 10z" />
		<path d="M2020 1835 c0 -12 28 -35 44 -35 11 0 -5 26 -24 38 -17 10 -20 10 -20 -3z" />
		<path d="M2030 1779 c0 -12 29 -38 43 -39 12 0 8 18 -9 34 -18 19 -34 21 -34 5z" />
		<path d="M2030 1651 c0 -10 11 -26 25 -35 24 -16 26 -16 32 0 4 11 -2 23 -18 35 -31 24 -39 24 -39 0z" />
		<path d="M2020 1564 c0 -18 27 -43 48 -44 19 0 14 38 -7 50 -28 14 -41 12 -41 -6z" />
		<path d="M2081 1476 c-17 -92 -54 -208 -93 -288 -33 -70 -109 -188 -133 -208 -28 -23 -35 -19 229 -140 49 -23 95 -39 102 -36 25 9 123 162 153 236 40 104 48 133 62 228 10 75 10 85 -6 102 -10 11 -22 20 -27 20 -5 0 -34 16 -64 35 -30 19 -56 35 -58 35 -3 0 -38 20 -78 44 l-74 43 -13 -71z" />
		<path d="M2013 1494 c-8 -22 10 -49 33 -49 29 0 28 30 -1 49 -24 16 -26 16 -32 0z" />
		<path d="M1985 1403 c-4 -12 1 -24 15 -35 29 -23 37 -23 46 4 11 37 -47 67 -61 31z" />
		<path d="M1959 1318 c-10 -18 -8 -24 7 -35 25 -18 48 -12 52 13 2 14 -5 24 -22 32 -22 10 -27 9 -37 -10z" />
		<path d="M1920 1231 c-8 -16 -6 -23 12 -35 29 -21 35 -20 48 5 9 17 8 23 -7 35 -25 19 -41 17 -53 -5z" />
		<path d="M1290 1186 c0 -16 37 -32 48 -21 7 7 -25 35 -40 35 -4 0 -8 -6 -8 -14z" />
		<path d="M1884 1145 c-6 -15 17 -45 35 -45 18 0 31 36 19 48 -17 17 -48 15 -54 -3z" />
		<path d="M1831 1066 c-10 -12 -8 -17 9 -26 25 -13 50 -7 50 14 0 13 -20 26 -40 26 -4 0 -13 -6 -19 -14z" />
		<path d="M1310 1051 c0 -6 10 -17 22 -26 28 -19 40 1 12 22 -21 15 -34 17 -34 4z" />
		<path d="M2346 1014 c-6 -16 8 -33 27 -34 12 0 4 43 -9 47 -6 2 -14 -4 -18 -13z" />
		<path d="M1339 990 c25 -22 41 -26 41 -10 0 11 -33 30 -52 30 -7 -1 -3 -9 11 -20z" />
		<path d="M1796 998 c5 -8 2 -9 -9 -5 -25 9 -21 -10 4 -24 17 -9 25 -8 38 5 14 15 14 18 1 26 -21 14 -43 12 -34 -2z" />
		<path d="M1354 945 c11 -8 27 -15 35 -15 13 1 12 4 -3 15 -11 8 -27 15 -35 15 -13 -1 -12 -4 3 -15z" />
		<path d="M2303 941 c-10 -15 -9 -22 2 -31 19 -16 45 -6 44 17 0 16 -1 16 -9 -2 -8 -18 -9 -17 -9 8 -1 32 -11 35 -28 8z" />
		<path d="M1653 878 c4 -13 67 -19 67 -8 0 14 -14 19 -26 9 -8 -7 -14 -7 -19 1 -9 14 -28 13 -22 -2z" />
		<path d="M2253 864 c-11 -30 36 -45 58 -18 10 13 10 17 -2 25 -22 14 -49 11 -56 -7z" />
		<path d="M1595 849 c-9 -14 -4 -18 33 -25 25 -5 32 -3 32 9 0 8 -10 17 -22 21 -31 8 -36 8 -43 -5z" />
		<path d="M2207 813 c-25 -24 22 -55 49 -32 14 12 14 14 -2 26 -20 14 -37 17 -47 6z" />
		<path d="M2140 745 c-10 -12 -8 -16 15 -25 20 -8 31 -7 42 2 13 10 13 14 -3 25 -23 17 -39 16 -54 -2z" />
		<path d="M530 390 c-25 -66 -25 -65 6 -74 18 -6 24 1 41 46 18 47 18 53 4 70 -8 10 -18 18 -22 18 -4 0 -17 -27 -29 -60z" />
	</g>
	<g id="layer103" fill="#5b3c25" stroke="none">
		<path d="M1045 2431 c-82 -48 -172 -101 -200 -118 l-50 -29 -3 -562 c-1 -309 0 -562 3 -562 3 0 19 7 35 15 l30 16 0 -35 c0 -28 -6 -37 -34 -54 -30 -18 -35 -27 -38 -64 -2 -31 -9 -45 -23 -53 -11 -5 -37 -20 -56 -33 -20 -12 -39 -22 -43 -22 -3 0 -6 16 -6 35 0 39 -7 42 -36 20 -28 -22 -34 -18 -34 19 0 28 6 38 35 55 l35 20 0 566 0 566 -27 -19 c-16 -10 -109 -64 -209 -121 l-181 -102 -6 -522 -6 -522 -24 -58 -24 -58 -7 552 c-5 442 -4 554 6 561 10 5 8 8 -4 8 -17 0 -18 -35 -18 -594 l0 -593 -66 -167 c-36 -92 -65 -169 -63 -170 5 -4 318 -146 339 -153 8 -3 6 2 -5 10 -19 15 -16 17 50 19 39 1 84 2 102 3 18 0 29 3 25 7 -13 13 -84 39 -77 29 8 -14 -194 -15 -215 -1 -14 9 57 15 162 14 32 -1 35 1 20 11 -37 25 -79 31 -172 24 -52 -4 -103 -3 -114 1 -24 9 138 22 174 14 18 -4 21 -3 11 4 -12 8 2 53 79 258 51 136 100 255 109 265 9 9 26 22 39 28 21 11 22 10 22 -29 0 -35 4 -42 28 -51 29 -11 43 -17 215 -98 l108 -51 -14 -27 c-7 -16 -51 -128 -98 -250 l-84 -223 -55 -1 c-30 -1 -82 -4 -115 -8 l-60 -7 58 -27 c45 -21 73 -27 125 -27 86 0 172 11 172 21 0 4 5 20 12 36 6 15 12 33 12 38 3 22 38 115 46 120 5 3 44 -8 88 -24 l80 -30 239 20 c131 10 257 20 280 22 24 2 44 5 47 8 2 2 7 36 10 74 11 114 5 108 101 100 l84 -7 193 78 c184 74 227 94 200 94 -7 0 -12 7 -12 15 0 13 6 12 40 -5 l40 -20 0 71 0 72 -67 -65 c-45 -42 -92 -76 -138 -97 -38 -18 -87 -42 -108 -53 -20 -11 -43 -17 -50 -15 -8 4 -7 6 3 6 8 1 22 6 30 11 13 9 13 11 0 21 -12 8 -10 9 8 4 12 -3 22 -2 22 3 0 16 -36 20 -55 6 -10 -8 -27 -14 -37 -14 -10 0 -18 -7 -18 -15 0 -16 -60 -17 -71 -1 -4 4 -16 3 -28 -4 -12 -6 -32 -9 -44 -7 -18 4 -17 5 6 6 15 0 27 6 27 11 0 6 12 10 26 10 20 0 24 3 16 13 -9 10 4 13 61 15 56 2 85 9 132 32 60 30 111 67 104 75 -3 2 -79 37 -171 78 l-166 74 -48 -37 c-60 -48 -123 -80 -157 -80 -15 0 -46 11 -71 25 -25 14 -51 22 -59 19 -8 -3 -17 2 -20 10 -4 9 -11 16 -17 16 -6 0 -8 -5 -4 -11 4 -7 1 -10 -7 -7 -8 3 -13 11 -11 17 1 7 -2 10 -7 7 -5 -3 -21 8 -35 25 -51 60 -83 167 -87 286 -1 43 -4 82 -7 86 -2 4 -15 1 -28 -8 l-24 -15 0 142 c-1 79 0 335 0 569 1 401 -5 560 -19 559 -3 -1 -73 -41 -156 -89z m95 -833 c0 -46 -4 -68 -9 -59 -14 22 -39 5 -44 -31 -3 -26 -4 -22 -5 15 l-2 48 -40 -22 c-36 -21 -40 -27 -41 -63 0 -25 -3 -34 -7 -24 -6 14 -10 15 -25 3 -15 -11 -18 -25 -16 -69 1 -31 0 -59 -4 -63 -4 -3 -7 46 -7 109 l0 116 98 56 c53 31 98 56 100 56 1 0 2 -33 2 -72z m-700 -243 l0 -154 -27 -15 -28 -14 -3 152 -4 151 29 17 c15 10 29 18 31 18 1 0 2 -70 2 -155z m649 -236 l-52 -70 -28 27 -29 28 73 42 c39 24 75 43 80 44 4 0 -16 -32 -44 -71z m-159 -4 c0 -28 -5 -37 -30 -50 l-30 -16 0 35 c0 28 6 38 28 50 15 8 28 15 30 16 1 0 2 -16 2 -35z m-645 -402 c-4 -10 -14 -37 -22 -60 -12 -35 -19 -43 -40 -43 -13 0 -23 4 -21 8 2 4 12 31 22 60 17 43 24 52 44 52 19 0 23 -4 17 -17z" />
		<path d="M1356 2458 c-3 -34 -6 -317 -6 -629 0 -326 -4 -569 -9 -569 -5 0 -18 8 -30 18 -20 16 -21 27 -24 237 l-3 220 1 -230 0 -230 78 -44 c80 -45 101 -69 28 -32 -22 12 -43 21 -46 21 -17 0 22 -192 51 -259 13 -29 24 -55 24 -57 0 -2 -12 1 -27 7 -22 8 -25 8 -16 -2 7 -7 21 -13 32 -14 11 -1 25 -6 33 -12 7 -5 34 -18 60 -28 46 -17 47 -17 85 5 71 43 73 46 57 92 -18 52 -18 66 2 64 9 0 19 4 21 10 5 15 -35 25 -42 10 -3 -6 -3 7 0 29 3 22 5 52 5 67 l0 27 35 -20 c29 -17 35 -27 35 -55 0 -19 -4 -34 -10 -34 -13 0 -13 -15 1 -63 10 -38 11 -38 30 -21 10 9 19 23 19 29 0 7 7 15 15 19 9 3 15 18 15 35 0 23 -8 34 -35 51 -29 18 -35 28 -35 56 0 39 1 39 41 19 l29 -16 -1 508 c0 279 -4 534 -7 567 l-7 58 -140 82 c-77 45 -165 96 -196 113 l-56 32 -7 -61z m202 -856 l3 -82 -36 21 -35 21 0 80 0 80 33 -19 c32 -19 32 -20 35 -101z m140 -81 l3 -84 -33 21 c-32 21 -33 23 -36 103 l-3 81 33 -19 c33 -19 33 -20 36 -102z" />
		<path d="M1911 1728 l0 -473 25 60 c99 237 104 532 11 634 l-22 24 30 -18 c96 -59 145 -166 145 -315 l0 -47 138 -81 c170 -100 172 -101 172 -71 -1 71 -46 211 -82 256 -6 7 -10 67 -9 137 2 102 -1 126 -14 140 -9 9 -22 16 -28 16 -7 0 -3 -7 7 -15 11 -8 15 -15 9 -15 -5 0 -18 9 -28 20 -10 11 -21 18 -24 16 -3 -2 -17 2 -31 10 -14 7 -21 13 -17 14 5 0 17 -5 28 -10 12 -7 19 -7 19 -1 0 9 -45 29 -45 20 0 -2 -11 5 -23 17 -12 11 -35 27 -50 35 -15 7 -43 23 -62 35 -19 11 -61 35 -92 53 l-57 31 0 -472z" />
		<path d="M2034 1821 c21 -23 26 -26 26 -11 0 5 -10 15 -22 21 -23 12 -23 12 -4 -10z" />
		<path d="M2030 1781 c0 -6 9 -15 20 -21 13 -7 20 -7 20 -1 0 6 -9 15 -20 21 -13 7 -20 7 -20 1z" />
		<path d="M2040 1715 c0 -8 9 -19 20 -25 15 -8 20 -8 20 2 0 7 -9 19 -20 26 -17 10 -20 10 -20 -3z" />
		<path d="M2040 1647 c0 -18 28 -42 37 -33 9 8 -9 38 -25 44 -7 2 -12 -3 -12 -11z" />
		<path d="M2030 1560 c0 -26 38 -47 46 -25 4 9 -1 22 -12 30 -26 20 -34 18 -34 -5z" />
		<path d="M2014 1485 c-6 -15 19 -44 39 -45 16 0 6 40 -13 50 -16 9 -22 8 -26 -5z" />
		<path d="M1996 1413 c-14 -14 -5 -42 15 -48 21 -7 43 11 33 27 -8 13 -41 28 -48 21z" />
		<path d="M1963 1314 c-6 -15 19 -44 38 -44 17 0 19 35 3 47 -24 17 -33 16 -41 -3z" />
		<path d="M1925 1229 c-8 -23 7 -39 38 -39 24 0 22 37 -2 50 -27 14 -29 13 -36 -11z" />
		<path d="M1290 1231 c0 -11 31 -24 39 -16 3 3 -1 10 -9 15 -19 12 -30 12 -30 1z" />
		<path d="M1290 1191 c0 -6 9 -15 20 -21 13 -7 20 -7 20 -1 0 6 -9 15 -20 21 -13 7 -20 7 -20 1z" />
		<path d="M1910 1130 c0 -32 14 -40 24 -14 9 24 7 31 -9 38 -11 4 -15 -2 -15 -24z" />
		<path d="M1300 1140 c0 -12 28 -25 36 -17 3 3 -4 10 -15 17 -15 7 -21 7 -21 0z" />
		<path d="M1314 1085 c11 -8 25 -15 30 -15 6 0 2 7 -8 15 -11 8 -25 15 -30 15 -6 0 -2 -7 8 -15z" />
		<path d="M1640 1065 c7 -8 17 -15 22 -15 6 0 5 7 -2 15 -7 8 -17 15 -22 15 -6 0 -5 -7 2 -15z" />
		<path d="M1320 1041 c0 -5 7 -12 16 -15 24 -9 28 -7 14 9 -14 17 -30 20 -30 6z" />
		<path d="M1330 1000 c0 -12 28 -25 36 -17 3 3 -4 10 -15 17 -15 7 -21 7 -21 0z" />
		<path d="M2305 937 c-4 -10 -5 -21 -1 -24 10 -10 18 4 13 24 -4 17 -4 17 -12 0z" />
		<path d="M2259 864 c-10 -13 -10 -17 2 -25 8 -5 20 -9 27 -9 19 0 27 31 11 41 -19 12 -25 11 -40 -7z" />
		<path d="M2210 805 c-16 -20 25 -41 46 -25 7 7 12 16 9 20 -9 15 -44 18 -55 5z" />
		<path d="M2145 741 c-7 -12 31 -25 45 -16 6 4 8 11 5 16 -8 12 -42 12 -50 0z" />
		<path d="M2080 701 c-12 -8 -10 -12 10 -19 29 -11 53 -5 47 12 -5 15 -38 19 -57 7z" />
		<path d="M496 251 l-109 -6 36 -17 c21 -10 37 -14 37 -9 0 8 104 21 170 21 20 0 22 2 10 10 -8 5 -19 9 -25 8 -5 -1 -59 -4 -119 -7z" />
	</g>
	<g id="layer104" fill="#2c6530" stroke="none">
		<path d="M1178 2498 c-16 -11 -28 -17 -28 -13 0 3 -7 -1 -16 -9 -8 -9 -19 -14 -23 -12 -4 3 -20 -6 -36 -20 -15 -13 -34 -24 -42 -24 -7 0 -13 -5 -13 -11 0 -5 -4 -7 -10 -4 -5 3 -10 1 -10 -5 0 -6 -4 -9 -9 -6 -5 3 -12 -1 -15 -10 -3 -8 -10 -13 -14 -10 -5 3 -23 -5 -42 -17 -18 -12 -52 -34 -74 -48 l-41 -25 -3 -557 c-1 -306 1 -557 6 -557 4 0 17 7 28 15 26 17 34 11 34 -27 0 -32 7 -34 37 -13 24 17 28 13 32 -31 2 -26 -3 -35 -32 -53 -45 -28 -47 -27 -47 14 0 39 -6 42 -38 19 -17 -11 -22 -25 -22 -57 0 -32 3 -38 12 -29 23 23 27 12 12 -30 -9 -26 -11 -44 -5 -48 6 -3 -2 -25 -19 -50 -17 -26 -27 -52 -24 -62 3 -11 0 -18 -7 -18 -7 0 -9 -3 -5 -7 9 -9 52 45 148 181 48 69 73 113 66 117 -11 7 -3 14 101 73 35 20 65 36 66 34 2 -2 -22 -37 -52 -78 -128 -175 -253 -362 -247 -371 3 -5 13 -9 22 -10 34 -1 167 -74 164 -89 -2 -8 -26 -75 -53 -149 -28 -73 -49 -134 -47 -135 2 -1 40 -16 85 -33 l81 -32 234 19 c128 11 256 22 285 25 l51 6 4 41 c3 33 0 43 -19 55 -17 12 -23 25 -23 54 0 45 -3 44 135 29 l80 -9 190 76 c105 42 194 80 200 85 22 19 -60 6 -98 -16 -23 -13 -57 -27 -74 -31 -18 -4 -33 -10 -33 -15 0 -10 -69 -34 -77 -26 -3 3 7 8 22 12 20 5 24 9 13 16 -10 7 -10 11 0 15 6 2 10 8 7 13 -6 9 -85 -28 -85 -41 0 -10 -63 -7 -71 4 -3 4 -20 0 -37 -8 -23 -12 -36 -13 -49 -6 -15 9 -13 10 15 11 17 0 32 5 32 10 0 6 10 10 23 11 12 0 16 3 10 6 -34 13 -5 23 65 23 68 0 87 4 138 30 60 31 110 67 103 75 -3 2 -79 37 -171 78 l-166 74 -48 -37 c-60 -48 -123 -80 -157 -80 -15 0 -47 11 -72 25 -25 14 -50 23 -56 19 -6 -3 -17 2 -24 12 -14 18 -14 18 -14 -6 0 -14 8 -68 18 -122 l18 -96 -21 7 c-17 7 -22 18 -24 58 -2 42 -7 52 -28 62 -30 13 -30 13 -39 -91 l-7 -78 -30 16 c-29 15 -30 18 -24 60 5 41 4 45 -25 59 -26 14 -29 20 -24 48 21 131 36 329 29 408 l-7 88 -28 -15 -29 -14 -2 639 -3 639 -27 -20z m-32 -1044 c-5 -13 -188 -124 -204 -124 -6 0 -9 48 -8 114 l1 114 105 61 105 60 3 -106 c1 -59 1 -112 -2 -119z m420 -765 c6 -41 9 -76 7 -79 -8 -10 -22 27 -28 75 -4 27 -9 58 -12 69 -3 12 -1 17 8 14 9 -3 18 -33 25 -79z m106 15 c9 -58 -6 -62 -18 -4 -8 36 -8 50 0 47 6 -2 14 -21 18 -43z m208 -126 c0 -4 -12 -8 -26 -8 -14 0 -23 4 -20 8 2 4 14 8 25 8 12 0 21 -4 21 -8z m-369 -28 c5 0 9 -9 9 -20 0 -20 -1 -20 -30 -5 -33 17 -33 17 -24 39 5 14 8 14 21 1 8 -8 19 -15 24 -15z m249 14 c0 -2 -12 -4 -27 -4 -21 0 -24 3 -14 9 13 8 41 5 41 -5z" />
	</g>
	<g id="layer105" fill="#3d4047" stroke="none">
		<path d="M1178 2498 c-16 -11 -28 -17 -28 -13 0 3 -7 -1 -16 -9 -8 -9 -19 -14 -23 -12 -4 3 -20 -6 -36 -20 -15 -13 -34 -24 -42 -24 -7 0 -13 -5 -13 -11 0 -5 -4 -7 -10 -4 -5 3 -10 1 -10 -5 0 -6 -4 -9 -9 -6 -5 3 -12 -1 -15 -10 -3 -8 -10 -13 -14 -10 -5 3 -23 -5 -42 -17 -18 -12 -52 -34 -74 -48 l-41 -25 -3 -557 c-1 -306 1 -557 6 -557 4 0 17 7 28 15 26 17 34 11 34 -27 0 -32 7 -34 37 -13 24 17 28 13 32 -31 2 -26 -3 -35 -32 -53 -45 -28 -47 -27 -47 14 0 39 -6 42 -38 19 -17 -11 -22 -25 -22 -57 0 -32 3 -38 12 -29 23 23 27 12 12 -30 -9 -26 -11 -44 -5 -48 6 -3 -2 -25 -19 -50 -17 -26 -27 -52 -24 -62 3 -11 0 -18 -7 -18 -7 0 -9 -3 -5 -7 9 -9 52 45 148 181 48 69 73 113 66 117 -11 7 -3 14 101 73 35 20 65 36 66 34 2 -2 -22 -37 -52 -78 -83 -114 -254 -362 -251 -364 2 -1 46 -22 98 -45 52 -24 97 -45 99 -47 4 -4 -30 -106 -41 -120 -10 -14 -70 -176 -66 -179 2 -1 39 -15 82 -30 l79 -29 241 18 c133 10 261 21 286 25 l45 6 -220 99 c-121 54 -221 99 -222 100 -1 1 12 121 28 266 23 204 28 286 23 357 l-6 92 -29 -15 -29 -14 -2 639 -3 639 -27 -20z m-32 -1044 c-5 -13 -188 -124 -204 -124 -6 0 -9 48 -8 114 l1 114 105 61 105 60 3 -106 c1 -59 1 -112 -2 -119z" />
		<path d="M603 2165 c-24 -13 -43 -22 -43 -19 0 3 -10 -4 -22 -16 -20 -19 -33 -24 -50 -21 -5 0 -8 -4 -8 -10 0 -5 -4 -8 -9 -5 -5 3 -11 -1 -15 -9 -3 -8 -10 -15 -17 -15 -6 0 -23 -9 -39 -20 -15 -11 -30 -17 -34 -13 -3 3 -6 1 -6 -6 0 -7 -4 -9 -10 -6 -5 3 -10 1 -10 -4 0 -6 -3 -10 -7 -9 -5 1 -27 -8 -51 -20 l-42 -22 0 -520 0 -520 -26 -67 c-15 -38 -31 -72 -35 -77 -4 -5 -8 248 -9 562 0 453 2 571 12 575 8 3 6 6 -4 6 -17 1 -18 -34 -18 -593 l0 -594 -65 -163 c-36 -90 -65 -167 -65 -171 0 -4 10 -10 22 -14 13 -4 54 -21 93 -39 70 -32 70 -33 170 -24 55 5 109 6 120 3 l20 -6 -20 16 c-11 8 -25 16 -30 16 -6 0 -40 15 -76 33 l-67 32 92 247 c50 136 94 249 97 253 4 3 19 0 33 -7 18 -8 30 -8 34 -2 4 6 22 19 40 29 28 17 32 25 32 60 0 37 3 43 34 58 l35 16 -1 500 c0 275 -3 524 -7 555 l-6 56 -42 -25z m-154 -832 l1 -131 -35 -21 -35 -20 0 159 0 159 28 15 c25 13 27 13 34 -7 3 -12 6 -81 7 -154z m-49 -466 c0 -11 -141 -372 -148 -379 -5 -5 -43 -8 -84 -6 l-75 3 71 185 72 185 64 6 c36 3 73 6 83 7 9 1 17 0 17 -1z m-75 -486 c13 -5 -12 -10 -70 -13 -99 -5 -136 -1 -113 13 16 11 156 10 183 0z" />
		<path d="M2021 1904 c46 -54 79 -164 79 -264 l0 -47 138 -81 c170 -100 172 -101 172 -71 -1 48 -29 158 -53 205 -36 69 -54 86 -196 178 -161 105 -160 104 -140 80z" />
		<path d="M2080 1469 c-16 -91 -57 -215 -100 -299 -37 -73 -100 -169 -124 -189 -9 -7 -16 -17 -16 -21 0 -4 77 -42 171 -86 l172 -78 33 39 c49 58 100 149 134 237 31 79 67 257 57 281 -5 13 -257 166 -298 182 -13 5 -18 -8 -29 -66z" />
		<path d="M1356 1240 c5 -5 34 -23 64 -40 57 -32 33 -31 -32 1 -21 11 -40 19 -43 19 -7 0 0 -64 17 -150 12 -62 57 -169 79 -186 8 -6 35 -19 61 -29 46 -17 47 -17 85 5 71 43 73 46 57 92 -18 52 -18 66 2 64 9 0 19 4 21 10 5 15 -35 25 -41 10 -2 -6 -5 5 -6 24 -1 32 -6 38 -62 70 -34 19 -65 34 -70 33 -4 -2 -8 1 -8 6 0 5 -27 25 -61 45 -60 36 -82 45 -63 26z" />
		<path d="M1680 1038 c0 -7 5 -30 11 -51 10 -38 11 -38 30 -21 25 23 24 49 -3 68 -27 19 -38 20 -38 4z" />
		<path d="M1770 990 c0 -9 31 -30 44 -30 16 0 3 18 -19 28 -14 7 -25 8 -25 2z" />
		<path d="M1717 943 c-9 -9 -9 -33 1 -33 4 0 13 9 20 20 10 16 10 20 -1 20 -8 0 -17 -3 -20 -7z" />
		<path d="M1754 880 c-60 -48 -123 -80 -157 -80 -15 0 -47 11 -72 25 -25 14 -50 23 -56 19 -6 -3 -17 2 -24 12 -14 18 -14 18 -15 -1 0 -49 49 -288 61 -296 8 -5 25 -9 39 -9 14 0 92 -7 173 -14 l148 -14 190 77 c104 43 192 81 196 84 17 18 -63 4 -100 -17 -23 -13 -57 -27 -74 -31 -18 -4 -33 -10 -33 -15 0 -10 -69 -34 -77 -26 -3 3 7 8 22 12 20 5 24 9 13 16 -10 7 -10 11 0 15 6 2 10 8 7 13 -6 9 -85 -28 -85 -41 0 -10 -63 -7 -71 4 -3 4 -20 0 -37 -8 -23 -12 -36 -13 -49 -6 -15 9 -13 10 15 11 17 0 32 5 32 10 0 6 10 10 23 11 12 0 16 3 10 6 -34 13 -5 23 65 23 68 0 87 4 138 30 60 31 110 67 103 75 -3 2 -79 37 -171 78 l-166 74 -48 -37z m-188 -191 c6 -41 9 -76 7 -79 -8 -10 -22 27 -28 75 -4 27 -9 58 -12 69 -3 12 -1 17 8 14 9 -3 18 -33 25 -79z m106 15 c9 -58 -6 -62 -18 -4 -8 36 -8 50 0 47 6 -2 14 -21 18 -43z m208 -126 c0 -4 -12 -8 -26 -8 -14 0 -23 4 -20 8 2 4 14 8 25 8 12 0 21 -4 21 -8z m-120 -14 c0 -2 -12 -4 -27 -4 -21 0 -24 3 -14 9 13 8 41 5 41 -5z" />
		<path d="M1595 849 c-9 -14 -4 -18 33 -25 36 -7 44 9 13 26 -25 13 -38 13 -46 -1z" />
		<path d="M2093 703 c-7 -3 -13 -9 -13 -14 0 -12 47 -12 54 0 7 10 -23 20 -41 14z" />
		<path d="M465 320 c5 -8 -24 -10 -104 -8 -61 2 -111 0 -111 -4 0 -5 5 -8 10 -8 6 0 33 -11 62 -25 59 -29 70 -31 42 -10 -17 13 -13 15 51 17 39 1 84 2 102 3 38 0 32 8 -20 30 -22 9 -36 11 -32 5z" />
		<path d="M495 251 c-91 -5 -105 -8 -84 -17 17 -8 50 -9 109 -2 47 5 96 9 110 8 20 0 22 2 10 10 -8 5 -19 9 -25 8 -5 -1 -59 -4 -120 -7z" />
	</g>
	<g id="layer106" fill="#605c60" stroke="none">
		<path d="M1161 2488 c-24 -15 -47 -25 -51 -23 -4 2 -16 -4 -26 -14 -24 -22 -114 -75 -132 -77 -7 -2 -25 -11 -39 -21 -14 -10 -44 -30 -67 -44 l-41 -25 -3 -557 c-1 -306 1 -557 6 -557 4 0 17 7 28 15 26 17 34 11 34 -27 0 -32 7 -34 37 -13 24 17 28 13 32 -31 2 -26 -3 -35 -32 -53 -45 -28 -47 -27 -47 14 0 39 -6 42 -38 19 -17 -11 -22 -25 -22 -57 0 -32 3 -38 12 -29 23 23 27 12 12 -30 -9 -26 -11 -44 -5 -48 6 -3 -2 -25 -19 -50 -17 -26 -27 -52 -24 -62 3 -11 0 -18 -7 -18 -7 0 -9 -3 -5 -7 9 -9 52 45 148 181 48 69 73 113 66 117 -11 7 -3 14 101 73 35 20 65 36 66 34 2 -2 -22 -37 -52 -78 -83 -114 -254 -362 -251 -364 2 -1 46 -22 98 -45 52 -24 97 -45 99 -47 4 -4 -30 -106 -41 -120 -10 -14 -70 -176 -66 -179 2 -1 39 -15 82 -30 l79 -29 241 18 c133 10 261 21 286 25 l45 6 -220 99 c-121 54 -221 99 -222 100 -1 1 12 121 28 266 23 204 28 286 23 357 l-6 92 -29 -15 -29 -14 -2 638 -3 638 -44 -28z m-15 -1034 c-5 -13 -188 -124 -204 -124 -6 0 -9 48 -8 114 l1 114 105 61 105 60 3 -106 c1 -59 1 -112 -2 -119z" />
		<path d="M542 2130 c-57 -33 -106 -60 -108 -60 -2 0 -22 -12 -43 -26 -22 -14 -45 -27 -53 -28 -7 -1 -32 -12 -56 -24 l-42 -22 0 -520 0 -520 -26 -67 c-15 -38 -31 -72 -35 -77 -4 -5 -7 250 -6 567 1 318 -1 577 -5 577 -5 0 -8 -267 -8 -594 l0 -594 -65 -163 c-36 -90 -65 -167 -65 -171 0 -19 73 -27 180 -20 111 8 114 8 83 22 l-31 15 92 247 c50 136 94 249 97 253 4 3 19 0 33 -7 18 -8 30 -8 34 -2 4 6 22 19 40 29 28 17 32 25 32 60 0 37 3 43 34 58 l35 16 -1 500 c0 275 -3 525 -7 555 l-6 56 -103 -60z m-92 -774 l0 -154 -35 -21 -35 -20 0 159 0 159 28 15 c15 8 30 15 35 16 4 0 7 -69 7 -154z m-50 -489 c0 -11 -141 -372 -148 -379 -5 -5 -43 -8 -84 -6 l-75 3 71 185 72 185 64 6 c36 3 73 6 83 7 9 1 17 0 17 -1z" />
		<path d="M1490 1881 l0 -82 35 -20 c31 -19 35 -26 35 -63 0 -38 3 -44 35 -59 l35 -17 0 35 c0 40 1 40 40 20 l30 -16 0 81 c0 80 0 80 -32 100 l-33 20 -3 -75 c-2 -41 -5 -75 -8 -75 -3 0 -18 7 -34 15 -28 15 -29 18 -32 97 -3 81 -3 82 -35 101 l-33 19 0 -81z" />
		<path d="M2034 1891 c31 -34 57 -123 63 -211 l6 -86 149 -88 c82 -49 151 -86 154 -83 8 8 -16 135 -36 190 -30 80 -72 123 -212 213 -71 46 -131 84 -135 84 -3 0 2 -8 11 -19z" />
		<path d="M2090 1516 c0 -105 -114 -384 -204 -500 -36 -47 -43 -62 -32 -68 8 -4 85 -40 172 -79 l158 -71 28 34 c54 62 118 183 147 273 38 116 57 244 39 261 -15 13 -294 174 -302 174 -3 0 -6 -11 -6 -24z" />
		<path d="M1365 1234 c23 -18 115 -66 115 -60 0 5 -120 76 -128 76 -4 0 2 -8 13 -16z" />
		<path d="M1350 1173 c0 -64 24 -162 56 -229 23 -49 32 -58 81 -79 52 -24 56 -24 86 -8 18 9 44 25 58 35 l26 20 -19 61 c-10 34 -19 75 -20 92 -1 26 -9 35 -61 65 -33 19 -66 34 -73 32 -7 -1 -40 11 -74 28 l-60 30 0 -47z" />
		<path d="M1680 1044 c0 -3 5 -25 11 -50 11 -43 12 -44 30 -28 25 23 24 49 -3 68 -23 16 -38 20 -38 10z" />
		<path d="M1640 1025 c7 -8 16 -12 21 -9 13 8 1 24 -18 24 -13 0 -13 -3 -3 -15z" />
		<path d="M1770 991 c0 -4 11 -13 25 -19 14 -6 25 -8 25 -3 0 4 -11 13 -25 19 -14 6 -25 8 -25 3z" />
		<path d="M1715 940 c-3 -5 -3 -15 1 -21 6 -11 23 6 24 24 0 10 -18 9 -25 -3z" />
		<path d="M1724 859 c-82 -59 -132 -71 -184 -44 -29 15 -32 15 -27 1 4 -9 2 -16 -3 -16 -9 0 -14 14 -11 32 0 4 -7 4 -16 1 -12 -5 -14 -3 -8 7 6 9 4 11 -4 6 -7 -5 -18 0 -26 10 -14 18 -14 18 -15 -1 0 -49 49 -288 61 -296 8 -5 25 -9 39 -9 14 0 92 -7 173 -14 l148 -14 190 77 c104 43 192 81 196 84 17 18 -63 4 -100 -17 -23 -13 -57 -27 -74 -31 -18 -4 -33 -10 -33 -15 0 -10 -69 -34 -76 -27 -3 3 4 8 16 12 17 5 19 10 9 21 -9 11 -8 14 5 14 10 0 14 5 11 11 -5 7 -13 5 -24 -5 -10 -9 -25 -16 -34 -16 -21 0 -42 -36 -24 -43 8 -4 9 -6 0 -6 -6 -1 -18 5 -25 12 -13 13 -67 15 -103 4 -11 -4 -27 -2 -35 3 -12 8 -9 10 13 10 15 0 27 5 27 10 0 6 12 10 28 11 15 0 21 3 15 6 -34 13 -5 23 66 23 68 0 86 4 137 31 60 31 110 67 103 73 -9 9 -324 146 -334 145 -5 0 -42 -23 -81 -50z m-158 -170 c6 -41 9 -76 7 -79 -8 -10 -22 27 -28 75 -4 27 -9 58 -12 69 -3 12 -1 17 8 14 9 -3 18 -33 25 -79z m106 15 c9 -58 -6 -62 -18 -4 -8 36 -8 50 0 47 6 -2 14 -21 18 -43z m208 -124 c0 -5 -12 -10 -26 -10 -14 0 -23 4 -19 10 3 6 15 10 26 10 10 0 19 -4 19 -10z m-120 -16 c0 -2 -12 -4 -27 -4 -21 0 -24 3 -14 9 13 8 41 5 41 -5z" />
		<path d="M1652 879 c2 -7 10 -15 17 -17 8 -3 12 1 9 9 -2 7 -10 15 -17 17 -8 3 -12 -1 -9 -9z" />
		<path d="M1599 850 c-18 -12 -10 -18 31 -26 24 -5 32 -4 28 6 -6 18 -42 30 -59 20z" />
		<path d="M255 361 l-110 -6 38 -17 c27 -13 44 -15 62 -8 14 5 61 10 106 11 72 2 78 4 57 15 -13 7 -27 13 -33 12 -5 -1 -59 -4 -120 -7z" />
		<path d="M270 303 c0 -1 13 -9 30 -18 26 -13 34 -13 62 -1 l33 13 -63 4 c-34 2 -62 3 -62 2z" />
		<path d="M410 235 c14 -8 30 -14 35 -14 6 0 -1 6 -15 14 -14 8 -29 14 -35 14 -5 0 1 -6 15 -14z" />
	</g>
	<g id="layer107" fill="#955932" stroke="none">
		<path d="M1161 2488 c-25 -15 -47 -26 -50 -23 -2 3 -14 -3 -25 -13 -31 -27 -124 -82 -140 -82 -7 0 -29 -12 -49 -27 -19 -16 -49 -36 -66 -45 l-31 -17 0 -556 c0 -305 3 -555 8 -555 4 0 17 7 28 15 26 17 34 11 34 -27 0 -32 7 -34 37 -13 24 17 28 13 32 -31 2 -26 -3 -35 -32 -53 -45 -28 -47 -27 -47 14 0 39 -6 42 -38 19 -17 -11 -22 -25 -22 -57 0 -32 3 -38 12 -29 23 23 27 12 12 -30 -9 -26 -11 -44 -5 -48 6 -3 -2 -25 -19 -50 -17 -26 -27 -52 -24 -62 3 -11 0 -18 -7 -18 -7 0 -9 -3 -5 -7 9 -9 52 45 148 181 48 69 73 113 66 117 -11 7 -3 14 101 73 35 20 65 36 66 34 2 -2 -26 -43 -62 -92 -35 -48 -105 -147 -154 -218 l-88 -130 69 -34 c38 -18 78 -34 87 -36 40 -7 46 -24 27 -81 -9 -28 -21 -57 -26 -63 -5 -7 -22 -48 -38 -93 -34 -92 -40 -81 69 -121 l65 -24 240 18 c133 10 261 21 286 25 l45 6 -220 99 c-121 54 -221 99 -222 100 -1 1 12 121 28 266 23 204 28 286 23 357 l-6 92 -29 -15 -29 -14 -2 638 -3 638 -44 -28z m-13 -925 l-3 -118 -95 -57 c-52 -32 -100 -57 -106 -58 -9 0 -11 33 -8 116 l4 117 98 57 c53 32 101 58 105 59 4 1 6 -52 5 -116z" />
		<path d="M1032 1534 c-15 -11 -22 -25 -22 -50 0 -39 2 -40 35 -18 19 12 25 25 25 50 0 38 -6 41 -38 18z" />
		<path d="M542 2130 c-57 -33 -106 -60 -108 -60 -2 0 -22 -12 -43 -26 -22 -14 -45 -27 -53 -28 -7 -1 -32 -12 -56 -24 l-42 -22 0 -520 0 -520 -26 -67 c-15 -38 -31 -72 -36 -78 -5 -5 -7 241 -6 568 2 317 0 577 -4 577 -5 0 -8 -267 -8 -594 l0 -594 -65 -163 c-36 -90 -65 -167 -65 -171 0 -19 73 -27 180 -20 111 8 114 8 83 22 l-31 15 92 247 c50 136 94 249 97 253 4 3 19 0 33 -7 18 -8 30 -8 34 -2 4 6 22 19 40 29 28 17 32 25 32 60 0 37 3 43 34 58 l35 16 -1 500 c0 275 -3 525 -7 555 l-6 56 -103 -60z m-92 -774 l0 -154 -35 -21 -35 -20 0 158 c0 153 1 159 23 174 45 32 47 27 47 -137z m-50 -489 c0 -11 -141 -372 -148 -379 -5 -5 -43 -8 -84 -6 l-75 3 71 185 72 185 64 6 c36 3 73 6 83 7 9 1 17 0 17 -1z" />
		<path d="M285 801 l-49 -6 -43 -110 c-64 -163 -64 -147 3 -143 l58 3 48 120 c47 121 54 146 41 143 -5 0 -30 -4 -58 -7z m5 -75 c0 -7 -10 -36 -21 -65 -18 -42 -26 -51 -46 -51 -27 0 -27 9 8 88 13 30 24 42 38 42 12 0 21 -6 21 -14z" />
		<path d="M1350 1178 c0 -50 26 -160 51 -217 21 -49 59 -91 83 -91 6 0 4 5 -4 11 -11 7 7 9 62 5 107 -6 113 2 87 109 -10 44 -17 84 -16 90 2 5 -19 23 -47 40 -70 42 -84 49 -62 31 29 -23 17 -20 -68 19 -43 19 -79 35 -82 35 -2 0 -4 -15 -4 -32z" />
		<path d="M613 972 c-14 -11 -22 -31 -25 -59 -2 -24 0 -43 4 -43 5 0 8 4 8 8 0 5 11 14 24 21 18 10 25 24 28 52 4 43 -5 48 -39 21z" />
		<path d="M724 955 c-11 -7 -26 -32 -33 -55 -7 -23 -15 -39 -18 -36 -3 3 -1 19 5 35 11 31 -3 46 -14 16 -10 -25 5 -82 21 -82 8 0 12 4 9 9 -3 4 -1 8 4 8 11 0 57 108 50 115 -2 3 -13 -2 -24 -10z" />
		<path d="M1765 884 c-85 -72 -189 -106 -223 -72 -10 10 -15 10 -22 -2 -7 -12 -13 -10 -37 10 -15 14 -33 32 -40 40 -15 19 -11 -28 16 -184 19 -112 27 -125 71 -126 14 0 92 -7 173 -14 l148 -14 190 77 c104 43 192 81 196 84 3 4 -6 7 -21 7 -15 0 -73 -22 -129 -48 -98 -46 -238 -84 -254 -68 -4 4 4 10 17 13 l25 7 -28 7 c-16 4 -42 3 -58 -3 -22 -8 -34 -7 -42 1 -8 8 -4 11 16 11 15 0 27 5 27 10 0 6 12 10 28 11 15 0 21 3 15 6 -32 12 -6 21 70 25 87 4 146 25 208 77 l30 26 -158 69 c-87 38 -165 70 -173 72 -8 2 -28 -8 -45 -22z m-199 -195 c6 -41 9 -76 7 -79 -8 -10 -22 27 -28 75 -4 27 -9 58 -12 69 -3 12 -1 17 8 14 9 -3 18 -33 25 -79z m106 15 c9 -58 -6 -62 -18 -4 -8 36 -8 50 0 47 6 -2 14 -21 18 -43z m126 -135 c-16 -11 -91 -12 -85 -1 3 4 26 7 52 8 28 1 41 -2 33 -7z" />
		<path d="M2092 703 c-6 -3 -10 -9 -6 -14 7 -12 41 -12 48 0 7 10 -23 20 -42 14z" />
		<path d="M1920 615 c0 -15 26 -20 54 -9 24 9 9 24 -25 24 -19 0 -29 -5 -29 -15z" />
		<path d="M623 203 c-57 -2 -103 -7 -103 -12 0 -5 23 -18 51 -30 40 -16 71 -21 133 -20 44 1 95 5 111 8 30 7 29 8 -29 34 -32 15 -59 26 -60 25 0 -1 -47 -4 -103 -5z" />
	</g>
	<g id="layer108" fill="#4a9f48" stroke="none">
		<path d="M1010 2329 c-102 -59 -188 -109 -192 -109 -4 0 -9 15 -11 33 -2 17 -5 -219 -5 -525 -1 -307 1 -558 6 -558 4 0 16 7 26 15 29 22 36 19 36 -20 0 -38 5 -42 34 -20 30 23 36 18 36 -24 0 -34 -5 -42 -34 -60 -44 -28 -46 -27 -46 14 0 40 -2 41 -35 19 -19 -12 -25 -25 -25 -51 0 -30 3 -34 20 -28 24 8 24 5 6 -40 -8 -19 -11 -35 -5 -35 17 0 9 -26 -21 -66 -35 -47 -37 -56 -9 -45 29 10 200 254 185 263 -6 4 -8 9 -6 11 15 12 172 98 174 95 2 -2 -62 -95 -141 -207 -88 -127 -139 -207 -132 -211 6 -4 1 -10 -13 -14 -19 -5 -11 -12 56 -42 44 -19 84 -36 90 -37 6 -1 17 -8 24 -15 11 -10 11 -21 -4 -65 -9 -28 -21 -57 -26 -63 -5 -7 -22 -48 -38 -93 -34 -92 -40 -81 69 -121 l65 -24 240 18 c133 10 261 21 286 25 l45 6 -220 99 c-121 54 -221 99 -222 100 -1 1 12 118 28 261 22 201 28 282 23 357 l-7 97 -28 -15 -29 -15 0 142 0 141 -32 -40 c-26 -32 -183 -137 -240 -160 -4 -2 -8 50 -8 116 l0 119 110 63 110 63 0 83 c0 65 3 83 16 88 25 10 32 7 37 -11 3 -10 5 120 6 290 0 169 -2 307 -6 306 -5 -1 -91 -50 -193 -110z m60 -279 c0 -5 -15 -17 -32 -26 l-33 -16 30 26 c34 29 35 29 35 16z m-70 -280 c0 -5 -10 -15 -22 -21 -23 -12 -23 -12 -4 10 21 23 26 26 26 11z" />
		<path d="M1765 884 c-85 -72 -189 -106 -223 -72 -10 10 -15 10 -22 -2 -7 -12 -13 -10 -37 10 -15 14 -33 32 -40 40 -9 12 -11 5 -7 -35 3 -27 9 -66 14 -85 4 -19 14 -67 20 -107 7 -43 17 -74 25 -77 8 -3 91 -11 185 -17 l171 -12 185 74 c122 49 178 76 166 80 -9 4 -37 -3 -62 -16 -113 -55 -158 -73 -202 -80 -27 -3 -48 -10 -48 -14 0 -4 -17 -5 -37 -2 l-38 4 29 12 29 12 -28 5 c-15 3 -40 1 -56 -5 -22 -9 -32 -8 -41 1 -9 9 -6 12 15 12 15 0 27 5 27 10 0 6 12 10 28 11 15 0 21 3 15 6 -32 12 -6 21 70 25 87 4 146 25 208 77 l30 26 -158 69 c-87 38 -165 70 -173 72 -8 2 -28 -8 -45 -22z m-200 -171 c3 -32 9 -68 12 -80 3 -13 1 -23 -5 -23 -13 0 -28 48 -37 113 -5 37 -3 47 8 47 10 0 17 -17 22 -57z m108 -5 c8 -62 -8 -68 -20 -9 -8 39 -7 51 2 51 7 0 15 -19 18 -42z m125 -139 c-18 -12 -91 -11 -84 0 4 5 27 9 52 9 28 -1 40 -4 32 -9z" />
	</g>
	<g id="layer109" fill="#c55428" stroke="none">
		<path d="M1765 884 c-85 -72 -189 -106 -223 -72 -10 10 -15 10 -22 -2 -7 -12 -13 -10 -37 10 -15 14 -33 32 -40 40 -9 12 -11 5 -7 -35 3 -27 9 -66 14 -85 4 -19 14 -67 20 -107 8 -52 16 -74 28 -77 10 -3 93 -10 185 -17 l168 -13 184 75 c123 49 179 76 167 80 -9 4 -37 -3 -62 -16 -113 -55 -158 -73 -202 -80 -27 -3 -48 -10 -48 -14 0 -4 -17 -5 -37 -2 l-38 4 29 12 29 12 -28 5 c-15 3 -40 1 -56 -5 -22 -9 -32 -8 -41 1 -9 9 -6 12 15 12 15 0 27 5 27 10 0 6 12 10 28 11 15 0 21 3 15 6 -32 12 -6 21 70 25 87 4 146 25 208 77 l30 26 -158 69 c-87 38 -165 70 -173 72 -8 2 -28 -8 -45 -22z m-200 -171 c3 -32 9 -68 12 -80 3 -13 1 -23 -5 -23 -13 0 -28 48 -37 113 -5 37 -3 47 8 47 10 0 17 -17 22 -57z m108 -5 c8 -62 -8 -68 -20 -9 -8 39 -7 51 2 51 7 0 15 -19 18 -42z m125 -139 c-18 -12 -91 -11 -84 0 4 5 27 9 52 9 28 -1 40 -4 32 -9z" />
		<path d="M2085 690 c3 -5 15 -10 26 -10 10 0 19 5 19 10 0 6 -12 10 -26 10 -14 0 -23 -4 -19 -10z" />
		<path d="M1920 615 c0 -12 4 -14 16 -7 9 5 26 7 37 4 14 -3 18 -1 13 6 -11 18 -66 15 -66 -3z" />
	</g>
	<g id="layer110" fill="#b07444" stroke="none">
		<path d="M1010 2329 c-102 -59 -188 -109 -192 -109 -4 0 -9 15 -11 33 -2 17 -5 -219 -5 -525 -1 -307 1 -558 6 -558 4 0 16 7 26 15 29 22 36 19 36 -20 0 -38 5 -42 34 -20 30 23 36 18 36 -24 0 -34 -5 -42 -34 -60 -44 -28 -46 -27 -46 14 0 40 -2 41 -35 19 -19 -12 -25 -25 -25 -51 0 -30 3 -34 20 -28 24 8 24 5 6 -40 -8 -19 -11 -35 -5 -35 17 0 9 -26 -21 -66 -35 -47 -37 -56 -9 -45 29 10 200 254 185 263 -6 4 -8 9 -6 11 15 12 172 98 174 95 2 -2 -62 -95 -141 -208 -79 -113 -139 -206 -133 -208 5 -2 10 -12 10 -23 0 -27 120 -84 135 -64 14 17 155 31 155 16 0 -6 -4 -10 -9 -9 -12 4 -181 -188 -181 -205 0 -8 -3 -17 -6 -20 -4 -4 -15 -30 -24 -58 l-17 -50 24 -10 c14 -5 53 -19 86 -30 l62 -21 274 24 274 23 -216 99 c-245 112 -225 92 -207 216 33 218 50 420 44 507 l-7 92 -28 -15 -29 -15 0 142 0 141 -32 -40 c-26 -32 -183 -137 -240 -160 -4 -2 -8 50 -8 116 l0 119 110 63 110 63 0 83 c0 65 3 83 16 88 25 10 32 7 37 -11 3 -10 5 120 6 290 0 169 -2 307 -6 306 -5 -1 -91 -50 -193 -110z m60 -279 c0 -5 -15 -17 -32 -26 l-33 -16 30 26 c34 29 35 29 35 16z m-70 -280 c0 -5 -10 -15 -22 -21 -23 -12 -23 -12 -4 10 21 23 26 26 26 11z m138 -1217 c-10 -2 -26 -2 -35 0 -10 3 -2 5 17 5 19 0 27 -2 18 -5z" />
		<path d="M642 2155 l-2 -40 -172 -99 c-95 -55 -185 -108 -200 -118 l-26 -18 -1 -479 -1 -478 -26 -64 c-14 -35 -30 -68 -35 -74 -6 -6 -8 212 -7 568 2 317 0 577 -4 577 -5 0 -8 -267 -8 -594 l0 -594 -65 -163 c-36 -90 -65 -167 -65 -171 0 -18 73 -26 180 -19 108 7 113 8 82 20 -18 7 -32 17 -30 21 2 4 43 117 92 251 49 134 91 246 93 248 2 3 16 0 31 -5 22 -8 34 -6 65 14 32 21 37 30 37 63 0 32 5 40 33 58 l34 21 5 112 c2 62 2 313 -2 558 -3 245 -7 427 -8 405z m-39 -365 c-3 -10 -22 -29 -42 -41 -40 -25 -103 -59 -109 -59 -1 0 30 29 70 64 72 65 91 73 81 36z m37 -282 c0 -31 -7 -37 -93 -90 l-92 -57 1 -68 c0 -80 -4 -92 -45 -116 l-31 -18 -2 103 c-2 179 1 211 25 230 34 27 47 22 47 -17 0 -19 2 -35 4 -35 3 0 42 22 88 50 46 27 86 50 91 50 4 0 7 -15 7 -32z m-240 -645 c0 -4 -32 -92 -71 -194 l-71 -187 -82 -4 c-44 -2 -83 -3 -85 -2 -2 2 30 89 70 193 l73 190 41 4 c78 7 125 7 125 0z" />
		<path d="M231 778 c-5 -13 -25 -63 -44 -113 -19 -49 -38 -98 -42 -107 -6 -15 -1 -18 31 -18 76 0 78 3 125 128 24 64 46 120 47 124 2 4 -22 8 -52 8 -49 0 -58 -3 -65 -22z m45 -100 c-20 -53 -28 -64 -50 -66 -32 -4 -32 3 -2 73 21 46 29 55 50 55 l25 0 -23 -62z" />
		<path d="M1181 1783 c-18 -16 -22 -33 -28 -137 l-6 -119 31 19 32 18 0 118 c0 65 -2 118 -4 118 -2 0 -13 -8 -25 -17z" />
		<path d="M1038 1534 c-22 -12 -28 -22 -28 -49 l0 -34 30 17 c24 13 30 24 30 50 0 17 -1 32 -2 32 -2 -1 -15 -8 -30 -16z" />
		<path d="M1356 1241 c14 -13 124 -74 124 -68 0 3 -27 21 -61 41 -59 35 -83 45 -63 27z" />
		<path d="M1350 1178 c0 -50 26 -160 51 -217 21 -49 59 -91 83 -91 6 0 4 5 -4 11 -11 7 7 9 62 5 108 -6 113 0 85 122 -21 88 -24 93 -62 116 -22 13 -43 22 -46 20 -4 -2 -41 12 -83 31 -43 19 -79 35 -82 35 -2 0 -4 -15 -4 -32z" />
		<path d="M1683 1032 c3 -9 8 -30 11 -45 7 -30 23 -32 40 -4 14 21 -1 47 -33 58 -18 7 -21 6 -18 -9z" />
		<path d="M618 974 c-24 -13 -28 -21 -28 -59 l0 -44 31 28 c24 22 30 35 27 59 -3 30 -4 30 -30 16z" />
		<path d="M727 957 c-10 -6 -26 -36 -38 -66 l-20 -54 22 14 c19 13 65 106 56 115 -2 2 -11 -2 -20 -9z" />
		<path d="M1765 884 c-85 -72 -189 -106 -223 -72 -10 10 -15 10 -22 -2 -7 -12 -13 -10 -37 10 -15 14 -33 32 -40 40 -9 12 -11 5 -7 -35 4 -49 21 -121 23 -99 1 7 26 22 57 34 l55 23 97 -38 c53 -22 108 -45 122 -53 l25 -14 -31 5 c-21 4 -43 -2 -73 -19 -24 -13 -48 -24 -54 -24 -6 0 -29 -8 -51 -19 -23 -10 -60 -26 -84 -36 -23 -10 -40 -21 -36 -24 12 -12 259 -28 289 -18 43 14 57 30 20 24 -103 -19 -111 -19 -90 -4 12 9 36 15 55 14 19 0 53 3 75 8 39 8 40 8 12 16 -18 5 -37 3 -54 -6 -18 -9 -31 -11 -38 -5 -7 6 -15 7 -18 3 -4 -3 -7 -1 -7 5 0 7 11 12 25 12 15 0 36 11 51 27 23 25 31 27 102 27 83 1 139 22 203 75 l30 26 -158 69 c-87 38 -165 70 -173 72 -8 2 -28 -8 -45 -22z m13 -245 c-16 -11 -49 -11 -65 -1 -6 4 9 7 34 8 27 1 39 -2 31 -7z" />
		<path d="M2085 690 c3 -5 13 -10 21 -10 8 0 14 5 14 10 0 6 -9 10 -21 10 -11 0 -17 -4 -14 -10z" />
		<path d="M2163 677 c-25 -11 -31 -27 -10 -27 6 1 23 7 36 14 30 16 7 28 -26 13z" />
		<path d="M2050 625 c-22 -13 -23 -14 -5 -14 11 0 31 6 45 14 22 13 23 14 5 14 -11 0 -31 -6 -45 -14z" />
		<path d="M1955 620 c3 -5 13 -10 21 -10 8 0 12 5 9 10 -3 6 -13 10 -21 10 -8 0 -12 -4 -9 -10z" />
		<path d="M1965 592 c-16 -2 -34 -8 -40 -14 -7 -7 2 -9 29 -5 58 9 68 26 11 19z" />
		<path d="M1850 561 c0 -5 -10 -12 -22 -16 -23 -8 -23 -8 3 -12 14 -2 38 1 55 8 27 10 27 12 9 19 -27 12 -45 12 -45 1z" />
		<path d="M633 200 c-56 -3 -104 -8 -107 -11 -4 -3 17 -16 45 -28 40 -16 71 -21 133 -20 44 1 94 4 109 8 28 6 28 7 -25 31 -49 23 -61 25 -155 20z" />
	</g>
	<g id="layer111" fill="#6f738d" stroke="none">
		<path d="M1103 2219 c-33 -21 -33 -22 -33 -99 l0 -78 -35 -22 -35 -22 0 -118 0 -118 -35 -22 -35 -22 0 -80 0 -80 68 38 c37 20 84 48 105 61 l37 23 0 280 c0 154 -1 280 -2 280 -2 0 -18 -10 -35 -21z" />
		<path d="M1490 1875 c0 -72 1 -75 30 -90 16 -8 31 -15 35 -15 3 0 5 33 5 73 0 70 -1 73 -29 90 -16 9 -32 17 -35 17 -3 0 -6 -34 -6 -75z" />
		<path d="M2063 1840 c23 -46 30 -77 35 -151 l7 -93 145 -88 c80 -48 148 -87 151 -87 7 -1 -6 104 -19 154 -7 22 -26 65 -44 95 -28 46 -51 67 -143 128 -60 40 -121 79 -135 87 l-26 13 29 -58z" />
		<path d="M1630 1795 c0 -72 1 -75 30 -90 16 -8 31 -15 35 -15 3 0 5 33 5 73 0 70 -1 73 -29 90 -16 9 -32 17 -35 17 -3 0 -6 -34 -6 -75z" />
		<path d="M1560 1715 c0 -28 5 -37 30 -50 39 -20 40 -20 40 18 0 25 -6 36 -29 50 -39 23 -41 22 -41 -18z" />
		<path d="M483 1700 c-28 -17 -33 -25 -33 -59 0 -39 -2 -41 -66 -77 -72 -40 -77 -47 -72 -93 l3 -31 58 35 c32 19 62 35 67 35 5 0 10 -16 12 -35 l3 -34 33 20 32 21 0 119 c0 65 -1 119 -2 119 -2 0 -18 -9 -35 -20z" />
		<path d="M2096 1527 c-3 -6 -10 -41 -16 -77 -26 -143 -103 -316 -194 -437 -24 -32 -44 -59 -43 -59 1 -1 78 -36 171 -78 l168 -76 20 23 c40 45 107 154 132 215 29 68 61 198 69 274 4 47 4 48 -37 72 -22 13 -92 54 -154 90 -72 42 -114 61 -116 53z" />
		<path d="M1350 1178 c0 -50 26 -160 51 -217 21 -49 59 -91 83 -91 6 0 4 5 -4 11 -11 7 7 9 62 5 107 -6 113 1 86 114 -11 47 -25 90 -31 97 -10 10 -231 113 -243 113 -2 0 -4 -15 -4 -32z" />
		<path d="M1684 1035 c3 -9 6 -24 6 -33 0 -9 4 -23 9 -31 8 -12 12 -12 25 -2 25 21 19 49 -15 67 -30 15 -31 15 -25 -1z" />
		<path d="M1771 986 c2 -2 15 -9 29 -16 23 -12 24 -12 11 3 -7 10 -20 17 -29 17 -8 0 -13 -2 -11 -4z" />
		<path d="M1717 943 c-10 -9 -9 -23 2 -23 5 0 11 7 15 15 5 15 -5 20 -17 8z" />
		<path d="M1765 884 c-85 -72 -189 -106 -223 -72 -10 10 -15 10 -22 -2 -7 -12 -13 -10 -37 10 -15 14 -32 31 -39 39 -9 11 -11 10 -11 -5 -1 -22 17 -114 22 -114 2 0 24 9 50 20 26 11 54 20 64 20 9 0 80 -26 157 -57 116 -48 149 -58 199 -58 64 0 127 25 186 74 l30 26 -158 69 c-87 38 -165 70 -173 72 -8 2 -28 -8 -45 -22z" />
		<path d="M1600 850 c-11 -7 -7 -12 13 -21 18 -8 31 -9 38 -2 13 13 -33 34 -51 23z" />
		<path d="M1710 666 c-23 -14 -21 -15 40 -13 36 1 65 7 65 12 0 16 -77 16 -105 1z" />
		<path d="M2150 670 c-12 -8 -12 -10 5 -10 11 0 27 5 35 10 12 8 12 10 -5 10 -11 0 -27 -5 -35 -10z" />
		<path d="M1930 580 c0 -12 8 -12 35 0 18 8 17 9 -7 9 -16 1 -28 -3 -28 -9z" />
		<path d="M1745 554 l-50 -13 48 3 c26 2 51 6 54 10 13 12 -3 12 -52 0z" />
		<path d="M160 351 c0 -8 41 -23 47 -17 2 1 -8 8 -22 14 -14 6 -25 8 -25 3z" />
	</g>
	<g id="layer112" fill="#65ce58" stroke="none">
		<path d="M1072 615 c-65 -75 -89 -111 -112 -171 l-29 -75 26 -10 c14 -5 53 -19 86 -30 l62 -21 274 24 274 23 -217 100 -218 99 5 76 c3 41 2 59 -1 40 -6 -30 -11 -35 -39 -38 -31 -3 -31 -3 -26 37 3 23 4 41 2 41 -3 0 -42 -43 -87 -95z m66 -62 c-10 -2 -26 -2 -35 0 -10 3 -2 5 17 5 19 0 27 -2 18 -5z" />
	</g>
	<g id="layer113" fill="#b0b350" stroke="none">
		<path d="M1235 797 c-4 -36 -5 -71 -3 -79 3 -7 8 20 12 61 3 41 4 76 2 78 -2 3 -7 -25 -11 -60z" />
		<path d="M1222 670 c0 -19 2 -27 5 -17 2 9 2 25 0 35 -3 9 -5 1 -5 -18z" />
		<path d="M1519 582 l-34 -15 32 -9 c24 -6 41 -4 63 7 16 9 30 17 30 19 0 12 -61 10 -91 -2z" />
		<path d="M1195 540 c22 -4 62 -17 88 -29 27 -13 51 -21 53 -18 10 9 -116 57 -147 56 l-34 -2 40 -7z" />
		<path d="M209 425 c-3 -2 -44 -5 -92 -6 -48 -1 -87 -5 -87 -9 0 -19 61 -26 155 -18 55 4 106 6 113 3 23 -9 12 5 -18 20 -28 15 -62 20 -71 10z" />
		<path d="M1045 410 c7 -12 62 -12 90 0 14 6 4 9 -38 9 -36 1 -56 -3 -52 -9z" />
	</g>
	<g id="layer114" fill="#9e9ea7" stroke="none">
		<path d="M1103 2219 c-33 -21 -33 -22 -33 -99 l0 -78 -35 -22 -35 -22 0 -118 0 -118 -35 -22 -35 -22 0 -80 0 -80 43 25 c23 13 68 39 100 57 32 18 61 38 63 44 2 6 3 134 2 283 l-3 272 -32 -20z" />
		<path d="M162 1408 c2 -288 4 -440 5 -338 7 476 7 860 1 860 -5 0 -7 -235 -6 -522z" />
		<path d="M2068 1839 c19 -38 26 -71 30 -145 l5 -95 150 -89 150 -90 -6 57 c-17 160 -57 222 -202 317 -161 107 -156 105 -127 45z" />
		<path d="M483 1700 c-28 -17 -33 -25 -33 -59 0 -39 -2 -41 -66 -77 -72 -40 -77 -47 -72 -93 l3 -31 65 40 65 40 5 -40 5 -39 33 20 32 21 0 119 c0 65 -1 119 -2 119 -2 0 -18 -9 -35 -20z" />
		<path d="M2096 1518 c-2 -7 -10 -42 -16 -77 -24 -131 -87 -275 -177 -404 -30 -43 -52 -81 -50 -84 3 -3 78 -38 166 -78 l161 -73 40 46 c94 110 181 339 180 475 l-1 42 -140 80 c-163 93 -158 91 -163 73z" />
		<path d="M1635 1030 c3 -5 13 -10 21 -10 8 0 12 5 9 10 -3 6 -13 10 -21 10 -8 0 -12 -4 -9 -10z" />
		<path d="M1692 1003 c13 -47 14 -49 33 -33 21 17 19 47 -4 60 -34 18 -40 13 -29 -27z" />
		<path d="M1784 899 c-12 -20 -127 -89 -165 -99 -31 -9 -45 -7 -70 5 -17 9 -28 12 -25 7 13 -22 -20 -18 -41 5 -37 39 -52 31 -42 -24 5 -25 11 -48 13 -50 2 -2 24 6 50 17 26 11 55 20 65 20 9 0 80 -25 157 -57 171 -69 212 -75 289 -40 62 29 115 64 115 77 0 7 -313 150 -330 150 -5 0 -12 -5 -16 -11z" />
		<path d="M1650 882 c0 -5 7 -13 16 -16 10 -4 14 -1 12 6 -5 15 -28 23 -28 10z" />
		<path d="M1590 845 c0 -3 12 -10 26 -15 29 -11 54 -3 33 11 -15 9 -59 12 -59 4z" />
		<path d="M1710 665 l-25 -14 30 0 c58 2 105 11 99 20 -8 14 -76 10 -104 -6z" />
		<path d="M2155 670 c-8 -13 15 -13 35 0 12 8 11 10 -7 10 -12 0 -25 -4 -28 -10z" />
		<path d="M1618 627 c-41 -16 -34 -23 20 -22 53 1 109 24 60 25 -14 0 -32 2 -40 4 -7 2 -25 -1 -40 -7z" />
		<path d="M1522 583 c-18 -7 -32 -15 -32 -18 0 -11 88 -4 105 9 17 12 16 14 -11 18 -17 2 -45 -2 -62 -9z" />
		<path d="M1625 565 l-40 -13 42 -1 c46 -1 73 6 73 20 0 12 -26 10 -75 -6z" />
		<path d="M1720 550 c-23 -7 -22 -8 10 -8 19 0 44 3 55 8 17 7 15 9 -10 8 -16 0 -41 -4 -55 -8z" />
		<path d="M1195 541 c22 -4 49 -12 60 -16 16 -6 18 -5 8 5 -6 7 -33 14 -60 16 -48 3 -48 3 -8 -5z" />
		<path d="M1825 540 c-7 -12 12 -12 40 0 18 8 17 9 -7 9 -15 1 -30 -3 -33 -9z" />
	</g>
	<g id="layer115" fill="#e39f57" stroke="none">
		<path d="M1203 1290 c0 -30 2 -43 4 -27 2 15 2 39 0 55 -2 15 -4 2 -4 -28z" />
		<path d="M1773 888 c-12 -13 -47 -39 -79 -57 -50 -31 -65 -35 -130 -36 -51 -1 -74 2 -74 10 0 6 -12 17 -26 24 l-26 12 7 -48 c4 -26 8 -49 10 -51 2 -2 21 6 44 17 60 31 74 30 188 -20 24 -11 45 -19 48 -19 4 0 27 -9 52 -21 71 -32 141 -44 189 -30 38 10 154 79 154 91 0 4 -271 127 -320 145 -9 3 -25 -4 -37 -17z" />
		<path d="M268 793 c-22 -3 -31 -14 -47 -56 -11 -29 -31 -83 -45 -120 l-26 -68 51 3 51 3 44 115 c24 63 44 118 44 123 0 7 -24 7 -72 0z m32 -58 c0 -15 -45 -121 -54 -127 -11 -8 -56 -11 -56 -4 0 4 22 66 39 109 8 21 17 27 41 27 16 0 30 -2 30 -5z" />
		<path d="M1710 665 c-27 -16 -33 -15 82 -3 9 1 14 6 12 10 -8 13 -67 8 -94 -7z" />
		<path d="M1618 627 c-16 -6 -28 -13 -28 -17 0 -8 87 -6 96 3 18 17 -33 28 -68 14z" />
		<path d="M1520 581 l-35 -16 39 -3 c42 -4 66 2 66 17 0 17 -35 18 -70 2z" />
		<path d="M1625 564 l-40 -13 49 2 c29 1 51 7 54 15 5 15 -11 14 -63 -4z" />
		<path d="M1718 543 c12 -2 30 -2 40 0 9 3 -1 5 -23 4 -22 0 -30 -2 -17 -4z" />
		<path d="M229 425 c-3 -2 -48 -5 -102 -6 -53 -1 -97 -5 -97 -9 0 -18 60 -26 140 -19 47 4 94 8 104 8 20 1 20 1 0 16 -19 15 -37 19 -45 10z" />
	</g>
	<g id="layer116" fill="#bfbeb4" stroke="none">
		<path d="M1096 2209 c-27 -21 -27 -24 -21 -94 l7 -73 -42 -23 -41 -23 2 -120 2 -120 -30 -14 c-24 -11 -32 -23 -37 -51 -8 -49 -8 -121 1 -121 4 0 51 25 105 56 l98 55 0 275 c0 151 -4 274 -9 274 -4 0 -20 -10 -35 -21z" />
		<path d="M480 1696 c-19 -11 -26 -25 -30 -57 -5 -41 -8 -45 -72 -82 -66 -37 -68 -40 -68 -78 0 -45 1 -45 84 11 24 17 47 30 50 30 3 0 6 -18 6 -40 l0 -39 35 20 35 21 0 114 c0 63 -3 114 -7 114 -5 -1 -19 -7 -33 -14z" />
		<path d="M164 1225 c0 -187 2 -262 3 -167 2 95 2 248 0 340 -1 92 -3 14 -3 -173z" />
		<path d="M2031 1263 c-29 -76 -79 -164 -136 -242 -26 -35 -45 -64 -43 -66 2 -2 75 -36 163 -75 116 -52 164 -69 175 -62 29 18 109 147 140 226 17 43 29 80 27 83 -3 2 -8 -5 -12 -16 -6 -19 -19 -12 -148 76 -104 71 -141 102 -140 115 5 32 -4 20 -26 -39z" />
		<path d="M1691 1023 c1 -10 4 -29 8 -41 l6 -24 19 20 c19 22 16 36 -15 52 -16 9 -19 8 -18 -7z" />
		<path d="M1780 895 c-25 -30 -104 -79 -155 -96 -46 -15 -48 -17 -25 -24 14 -4 78 -29 142 -56 134 -56 178 -65 235 -50 37 10 153 79 153 91 0 4 -271 127 -321 145 -9 3 -22 -1 -29 -10z" />
		<path d="M1600 845 c0 -2 9 -9 20 -15 24 -13 50 -2 29 11 -15 9 -49 12 -49 4z" />
		<path d="M1445 793 c4 -26 8 -49 9 -51 2 -1 27 8 55 22 52 24 55 44 5 32 -16 -4 -24 -2 -24 7 0 8 -12 19 -26 26 l-26 12 7 -48z" />
		<path d="M1764 664 c-18 -14 -18 -15 4 -4 12 6 28 8 34 4 7 -4 8 -3 4 4 -10 16 -18 15 -42 -4z" />
		<path d="M1650 620 c-12 -8 -9 -10 13 -10 15 0 27 5 27 10 0 13 -20 13 -40 0z" />
		<path d="M1560 580 c-12 -8 -11 -10 8 -10 12 0 22 5 22 10 0 13 -11 13 -30 0z" />
		<path d="M1660 570 c-12 -8 -11 -10 8 -10 12 0 22 5 22 10 0 13 -11 13 -30 0z" />
		<path d="M1195 540 c22 -4 49 -10 60 -14 13 -5 11 -2 -5 8 -14 8 -41 15 -60 14 l-35 -1 40 -7z" />
		<path d="M1103 533 c9 -2 25 -2 35 0 9 3 1 5 -18 5 -19 0 -27 -2 -17 -5z" />
		<path d="M1001 521 c-10 -6 1 -8 30 -4 24 3 46 7 48 9 10 9 -65 3 -78 -5z" />
	</g>
	<g id="layer117" fill="#d8dbe1" stroke="none">
		<path d="M1103 2213 c-21 -14 -23 -24 -23 -93 l0 -78 -35 -22 -35 -22 0 -118 0 -118 -35 -22 c-35 -22 -35 -22 -35 -97 l0 -75 43 25 c23 13 68 39 100 57 l57 32 0 274 c0 151 -3 274 -7 273 -5 0 -18 -7 -30 -16z" />
		<path d="M478 1694 c-24 -12 -28 -21 -28 -57 0 -42 -1 -42 -70 -81 -65 -37 -70 -42 -70 -73 0 -18 3 -33 8 -33 4 0 33 16 65 35 32 19 60 35 63 35 2 0 4 -16 4 -35 0 -39 8 -43 39 -17 20 16 22 25 19 129 l-3 111 -27 -14z" />
		<path d="M1980 1152 c-19 -37 -56 -96 -83 -131 -26 -35 -47 -65 -45 -66 2 -2 77 -36 166 -76 l164 -73 33 40 c33 38 122 194 111 194 -3 0 -11 -11 -18 -25 l-13 -24 -90 60 c-50 33 -114 76 -143 95 -42 28 -52 39 -47 55 11 35 0 20 -35 -49z" />
		<path d="M164 1020 c0 -74 1 -105 3 -67 2 37 2 97 0 135 -2 37 -3 6 -3 -68z" />
		<path d="M1694 1009 c3 -17 6 -36 6 -42 0 -5 9 -2 20 8 21 19 14 47 -16 59 -14 5 -16 1 -10 -25z" />
		<path d="M1779 894 c-24 -30 -130 -93 -166 -100 -32 -6 -27 -10 99 -61 180 -73 205 -78 265 -61 45 13 153 76 153 88 0 4 -262 122 -321 145 -9 3 -22 -2 -30 -11z" />
		<path d="M1605 840 c3 -5 18 -10 33 -9 24 0 25 1 7 9 -28 12 -47 12 -40 0z" />
		<path d="M1444 809 c3 -17 6 -40 6 -49 0 -17 4 -17 55 3 39 16 50 24 39 30 -8 5 -23 5 -34 2 -14 -4 -20 -2 -20 8 0 7 -12 19 -26 26 -26 12 -27 11 -20 -20z" />
	</g>
</svg>